<svg xmlns="http://www.w3.org/2000/svg" xmlns:xlink="http://www.w3.org/1999/xlink" xmlns:inkscape="http://www.inkscape.org/namespaces/inkscape" version="1.1" width="1190.55" height="841.89" viewBox="0 0 1190.55 841.89">
<defs>
<clipPath id="clip_1">
<path transform="matrix(1,0,0,-1,0,841.89)" d="M1029.528 418.748H1095.3529V841.889H1029.528Z"/>
</clipPath>
<clipPath id="clip_2">
<path transform="matrix(1,0,0,-1,0,841.89)" d="M1030.547 416.783H1096.372V841.89H1030.547Z"/>
</clipPath>
<clipPath id="clip_3">
<path transform="matrix(1,0,0,-1,0,841.89)" d="M1094.638 425.932V0H1157.891V425.932Z"/>
</clipPath>
<path id="font_4_9" d="M.30137635 .6044922H.08375549V0H.13729859V.22363281H.30137635C.42744447 .22363281 .49998475 .29789735 .49998475 .41448976 .49998475 .5302124 .42744447 .6044922 .30137635 .6044922M.29533387 .26939393H.13729859V.5587158H.29533387C.39117433 .5587158 .4473114 .50172427 .4473114 .41448976 .4473114 .32640077 .39117433 .26939393 .29533387 .26939393Z"/>
<path id="font_4_8" d="M.35404969-.009765625C.53108218-.009765625 .660614 .12243652 .660614 .3022461 .660614 .4820404 .53108218 .6142578 .35404969 .6142578 .17701721 .6142578 .04663086 .4820404 .04663086 .3022461 .04663086 .12243652 .17701721-.009765625 .35404969-.009765625M.35404969 .04031372C.20724488 .04031372 .10015869 .1509552 .10015869 .3022461 .10015869 .45352174 .20724488 .5641632 .35404969 .5641632 .49998475 .5641632 .6070709 .45352174 .6070709 .3022461 .6070709 .1509552 .49998475 .04031372 .35404969 .04031372Z"/>
<path id="font_4_10" d="M.5224457 .42663575C.5224457 .5345459 .44903565 .6044922 .331604 .6044922H.08375549V0H.13729859V.24707031H.331604 .3324585L.46717835 0H.5224457V.0043182375L.38513185 .25224305C.47062684 .27038575 .5224457 .33512879 .5224457 .42663575M.13729859 .5587158H.32554627C.41363526 .5587158 .4689026 .50605776 .4689026 .42663575 .4689026 .3454895 .41363526 .29283143 .32554627 .29283143H.13729859V.5587158Z"/>
<path id="font_4_11" d="M.5172577 .6044922H.03540039V.5587158H.2495575V0H.3031006V.5587158H.5172577V.6044922Z"/>
<path id="font_4_5" d="M.46803285 .5587158V.6044922H.08375549V0H.13729859V.28504945H.44213868V.32910157H.13729859V.5587158H.46803285Z"/>
<path id="font_4_7" d="M.13729859 .04576111V.6044922H.08375549V0H.46803285V.04576111H.13729859Z"/>
<path id="font_4_6" d="M.08375549 .6044922V0H.13729859V.6044922H.08375549Z"/>
<path id="font_5_2" d="M.066482547 .6044922 .02935791 .3212433H.17701721L.25300599 .6044922H.066482547Z"/>
<path id="font_5_35" d="M.5492096 .5185547H.35749818C.3618164 .36032105 .34973146 .29634095 .29014588 .26263429L.18565369 .5185547H-.013824463V.51335147L.24783325-.12988281H.4473114V-.12471008L.35664369 .098358158C.48358155 .14590454 .55784609 .2505188 .5492096 .5185547Z"/>
<path id="font_5_34" d="M.03453064 .5185547V.20335388L.22451782 .22579956V.5185547H.03453064Z"/>
<path id="font_5_33" d="M.47494508 .15974427V.26667787C.47494508 .43753053 .38168336 .52734377 .2141571 .52734377 .14506531 .52734377 .07167053 .5074768 .0034484864 .46775819L.06303406 .3304901C.095840457 .3486023 .14161682 .36758424 .19256592 .36758424 .2685547 .36758424 .2849579 .3123932 .2849579 .24771118V.15974427H.025894165V0H.52934268V.15974427H.47494508Z"/>
<path id="font_5_32" d="M.22969055 .5185547H.039718629V0H.22969055V.5185547Z"/>
<path id="font_5_31" d="M.3808136 .5263672C.30397035 .5263672 .24523926 .49441529 .20379639 .42704774L.18048096 .5175781H.0043029787L.09326172 .2372284 .01725769 0H.1986084L.27027894 .22686768C.30137635 .3242798 .32728578 .3553772 .37564088 .3553772 .41880799 .3553772 .4499054 .3182373 .4499054 .25863648 .4499054 .17398072 .414505 .14202881 .3350525 .16966248L.29101563 .01725769C.50949099-.059188844 .6398773 .04270935 .6398773 .25857545 .6398773 .416687 .5388489 .5263672 .3808136 .5263672Z"/>
<path id="font_5_30" d="M.20724488 .5185547V.6044922H.01725769V.35879518H.26338197L.12779236 .0077667238V0H.3298645L.51553347 .49954225V.5185547H.20724488Z"/>
<path id="font_5_29" d="M.3169098 .5185547H.031936647V.2592926C.031936647 .088974 .13470459-.0146484379 .30827333-.0146484379 .4818573-.0146484379 .58461 .088974 .58461 .2592926 .58461 .42182923 .49049378 .5185547 .3169098 .5185547M.30827333 .15115357C.25387574 .15115357 .22192383 .19180298 .22192383 .2592926V.35879518H.30827333C.36268617 .35879518 .39463807 .3207245 .39463807 .2592926 .39463807 .19180298 .36268617 .15115357 .30827333 .15115357Z"/>
<path id="font_5_1" d="M0 0Z"/>
<path id="font_5_28" d="M.47839356 .17802429C.5682068 .22642517 .61483767 .31803895 .6027527 .5185547H.4127655C.41363526 .40359498 .40931703 .34051515 .38168336 .30593873L.22192383 .5185547H.018127442V.50990298L.14506531 .34051515C.055267335 .29211427 .008621216 .20050049 .020721436 0H.21069336C.20983887 .11494446 .2141571 .17802429 .24179077 .21260071L.4015503 0H.6053467V.008636475L.47839356 .17802429Z"/>
<path id="font_5_27" d="M.16925049 .5185547H.056991579V.35879518H.08807373C.1312561 .35879518 .14506531 .3406067 .14506531 .29733277V.26271058C.14506531 .20039368 .119155887 .17529297 .04576111 .17529297H.0068969728V0H.04576111C.108795169 0 .14852906 .033676149 .16925049 .10015869H.17442322L.19084168 0H.3350525V.35446168C.3350525 .46846009 .27719117 .5185547 .16925049 .5185547Z"/>
<path id="font_5_26" d="M.5328064 .5185547V.28953553C.5328064 .2013855 .47235108 .14866638 .3773651 .14866638 .28237916 .14866638 .22192383 .2013855 .22192383 .28953553V.5185547H.031936647V.29212953C.031936647 .103759769 .16320801-.013671875 .3773651-.013671875 .5915222-.013671875 .7227783 .103759769 .7227783 .29212953V.5185547H.5328064M.46977235 .5185547H.2849579V.22644043L.46977235 .25582887V.5185547Z"/>
<path id="font_5_25" d="M.49308778 .26843263C.49308778 .45750428 .37217713 .5283203 .22796631 .5283203 .14421082 .5283203 .07167053 .5101776 .0008544922 .46958924L.050949098 .33143617C.09152222 .35128785 .13816834 .3659668 .18824768 .3659668 .2677002 .3659668 .3031006 .31330873 .3031006 .22181702V0H.49308778V.26843263Z"/>
<path id="font_4_1" d="M.30569459 .6044922H.2659607L.0017242432 .0043029787V0H.056121828L.12347412 .15625H.4473114L.5146637 0H.56907656V.0043029787L.30569459 .6044922M.14247132 .19941712 .28582765 .53193667 .42918397 .19941712H.14247132Z"/>
<path id="font_4_17" d="M.120025638 .3272705H.119155887L.11483765 .47460938H.07080078V0H.12261963V.22262573C.12261963 .35490418 .22364807 .4317627 .32554627 .4291687V.47753907C.22019959 .4801178 .13902283 .4075775 .120025638 .3272705Z"/>
<path id="font_4_13" d="M.039718629 .23730469C.039718629 .09403992 .13729859-.0078125 .27633668-.0078125 .37132264-.0078125 .44644166 .04484558 .48013307 .11820984L.43954469 .13891602C.41104127 .08023071 .35404969 .037078859 .27633668 .037078859 .1666565 .037078859 .08894348 .120788577 .08894348 .23730469 .08894348 .35380555 .1666565 .43751527 .27633668 .43751527 .35232545 .43751527 .40931703 .3943634 .43954469 .3356781L.48013307 .35638429C.44644166 .42974855 .37132264 .48242188 .27633668 .48242188 .13729859 .48242188 .039718629 .3805542 .039718629 .23730469Z"/>
<path id="font_4_15" d="M.3005066 .48046876C.2167511 .48046876 .15284729 .43901063 .12174988 .3690033V.64746096H.07080078V0H.12174988V.2566681C.12174988 .3664093 .18652344 .43814088 .2849579 .43814088 .3799591 .43814088 .44126893 .3664093 .44126893 .2566681V0H.49221803V.2566681C.49221803 .39492799 .4179535 .48046876 .3005066 .48046876Z"/>
<path id="font_4_16" d="M.096710208 .562027C.11830139 .562027 .13557434 .5792999 .13557434 .60176089 .13557434 .62335208 .11830139 .640625 .096710208 .640625 .07426453 .640625 .056991579 .62335208 .056991579 .60176089 .056991579 .5792999 .07426453 .562027 .096710208 .562027M.07080078 0H.12174988V.47460938H.07080078V0Z"/>
<path id="font_4_18" d="M.25042726 .044036867C.17788697 .044036867 .15110779 .08027649 .15110779 .15533448V.4348755H.2789154V.47460938H.15110779V.594635L.10015869 .58340457V.47460938H.025894165V.4348755H.10015869V.13980103C.10015869 .050079347 .13902283 0 .23487854 0H.29187013V.044036867H.25042726Z"/>
<path id="font_4_14" d="M.27459718 .48242188C.13816834 .48242188 .039718629 .3771057 .039718629 .23728943 .039718629 .098342899 .13816834-.0078125 .27459718-.0078125 .35749818-.0078125 .41880799 .02671814 .4628601 .087127689L.42399598 .11387634C.38772584 .06297302 .3350525 .036224367 .27459718 .036224367 .17269898 .036224367 .097579959 .11042786 .08807373 .21484375H.5034485C.5172577 .34776307 .4335022 .48242188 .27459718 .48242188M.27459718 .43751527C.3937683 .43751527 .45594789 .34516908 .45767213 .25109864H.08720398C.09326172 .35984803 .17010498 .43751527 .27459718 .43751527Z"/>
<path id="font_4_19" d="M.41622926 .47460938V.1960144C.41622926 .1028595 .35664369 .039031984 .2659607 .039031984 .17529297 .039031984 .1157074 .1028595 .1157074 .1960144V.47460938H.0647583V.19429016C.0647583 .0761261 .14506531-.005859375 .2659607-.005859375 .38687135-.005859375 .4663086 .0761261 .4663086 .19429016L.46717835 .47460938H.41622926Z"/>
<path id="font_4_2" d="M0 0Z"/>
<path id="font_4_20" d="M.08375549 .64746096V-.17285156H.13470459V.64746096H.08375549Z"/>
<path id="font_4_44" d="M.3514557 .5185547H.061309816V.47277833H.14161682V.12466431C.14161682 .06765747 .12261963 .040008546 .07771301 .040008546 .053527833 .040008546 .03540039 .044326784 .015533447 .051239015L.0068969728 .008926392C.031082154 .000289917 .066482547-.0048828127 .09326172-.0048828127 .15542603-.0048828127 .19429016 .033111574 .19429016 .110839847V.47277833H.34973146C.47235108 .47277833 .5267639 .40885926 .5267639 .27323915V0H.580307V.27311708C.580307 .44340516 .50949099 .5185547 .3514557 .5185547Z"/>
<path id="font_4_43" d="M.13038635 .5185547H.07684326V0H.13038635V.5185547Z"/>
<path id="font_4_42" d="M.09326172 .5185547V.6044922H.039718629V.47277833H.3998108L.20724488 .0025787354V0H.26423646L.46977235 .51249697V.5185547H.09326172Z"/>
<path id="font_4_41" d="M.22537232 .5263672C.15197754 .5263672 .09498596 .50735476 .043167116 .4728241L.060440065 .43571473C.10534668 .46418763 .15370178 .48231507 .21932984 .48231507 .3454132 .48231507 .42658998 .39341737 .42658998 .2587738 .42658998 .12414551 .3454132 .035247804 .21932984 .035247804 .15370178 .035247804 .10534668 .053375246 .060440065 .081848148L.043167116 .04473877C.09498596 .01020813 .15197754-.0087890629 .22537232-.0087890629 .37908937-.0087890629 .48013307 .0965271 .48013307 .2587738 .48013307 .42103578 .37908937 .5263672 .22537232 .5263672Z"/>
<path id="font_4_40" d="M.06994629 .5185547V.21543885L.12347412 .22579956V.5185547H.06994629Z"/>
<path id="font_4_39" d="M.46199037 .2678833C.46199037 .44763185 .3644104 .5253906 .22451782 .5253906 .16061402 .5253906 .096710208 .51156619 .031936647 .47529603L.050079347 .43640138C.10362244 .46492005 .15457154 .4813385 .2167511 .4813385 .33590699 .4813385 .41018678 .41307069 .41018678 .26615907V0H.46199037V.2678833Z"/>
<path id="font_4_38" d="M.037994386 .5185547V.47277833H.41967774C.37564088 .45030213 .3454132 .405365 .3454132 .3223877V0H.3989563V.32411195C.3989563 .4252472 .44558717 .47277833 .52589419 .47277833V.5185547H.037994386Z"/>
<path id="font_4_37" d="M.4024048 .17025757C.49653626 .2160492 .5466156 .30506898 .5414429 .5185547H.48789979C.49221803 .32667542 .45162965 .24543762 .37391664 .20481873L.1131134 .5185547H.05267334V.51594546L.19256592 .34828187C.09843445 .30247499 .048355104 .2134552 .053527833 0H.10707092C.102752689 .19186402 .14334107 .2731018 .22106934 .3137207L.4818573 0H.54229739V.0025787354L.4024048 .17025757Z"/>
</defs>
<path transform="matrix(1,0,0,-1,0,841.89)" d="M1016.96 0H1160.175V841.855H1016.96Z" fill="#d1d3d4"/>
<path transform="matrix(1,0,0,-1,0,841.89)" d="M1022.656 0H1026.206V841.855H1022.656Z" fill="#ffffff"/>
<path transform="matrix(1,0,0,-1,0,841.89)" d="M1028.771 0H1032.321V841.855H1028.771Z" fill="#ffffff"/>
<path transform="matrix(1,0,0,-1,1028.7774,419.31663)" d="M0 0 65.243-422.573H68.836L3.509 .544Z" fill="#ffffff"/>
<path transform="matrix(1,0,0,-1,0,841.89)" d="M1094.86 0H1098.411V841.855H1094.86Z" fill="#ffffff"/>
<g clip-path="url(#clip_1)">
<path transform="matrix(1,0,0,-1,1090.29,210.91645)" stroke-width="3.234" stroke-linecap="butt" stroke-miterlimit="10" stroke-linejoin="miter" fill="none" stroke="#ffffff" d="M0 0C0-115.717-27.204-209.524-60.762-209.524-94.32-209.524-121.525-115.717-121.525 0-121.525 115.717-94.32 209.524-60.762 209.524-27.204 209.524 0 115.717 0 0Z"/>
</g>
<g clip-path="url(#clip_2)">
<path transform="matrix(1,0,0,-1,1035.6094,210.14459)" stroke-width="3.237" stroke-linecap="butt" stroke-miterlimit="10" stroke-linejoin="miter" fill="none" stroke="#ffffff" d="M0 0C0 115.929 27.204 209.908 60.762 209.908 94.32 209.908 121.525 115.929 121.525 0 121.525-115.929 94.32-209.907 60.762-209.907 27.204-209.907 0-115.929 0 0Z"/>
</g>
<g clip-path="url(#clip_3)">
<path transform="matrix(1,0,0,-1,1153.0258,631.0529)" stroke-width="3.174" stroke-linecap="butt" stroke-miterlimit="10" stroke-linejoin="miter" fill="none" stroke="#ffffff" d="M0 0C0-116-26.141-210.036-58.388-210.036-90.635-210.036-116.777-116-116.777 0-116.777 116-90.635 210.036-58.388 210.036-26.141 210.036 0 116 0 0Z"/>
</g>
<use data-text="P" xlink:href="#font_4_9" transform="matrix(51.446,0,0,-50,695.5391,381.1122)" fill="#231f20"/>
<use data-text="O" xlink:href="#font_4_8" transform="matrix(51.446,0,0,-50,728.8247,381.1122)" fill="#231f20"/>
<use data-text="R" xlink:href="#font_4_10" transform="matrix(51.446,0,0,-50,770.3416,381.1122)" fill="#231f20"/>
<use data-text="T" xlink:href="#font_4_11" transform="matrix(51.446,0,0,-50,804.5532,381.1122)" fill="#231f20"/>
<use data-text="F" xlink:href="#font_4_5" transform="matrix(51.446,0,0,-50,838.1989,381.1122)" fill="#231f20"/>
<use data-text="O" xlink:href="#font_4_8" transform="matrix(51.446,0,0,-50,868.7527,381.1122)" fill="#231f20"/>
<use data-text="L" xlink:href="#font_4_7" transform="matrix(51.446,0,0,-50,910.2696,381.1122)" fill="#231f20"/>
<use data-text="I" xlink:href="#font_4_6" transform="matrix(51.446,0,0,-50,941.0343,381.1122)" fill="#231f20"/>
<use data-text="O" xlink:href="#font_4_8" transform="matrix(51.446,0,0,-50,957.54849,381.1122)" fill="#231f20"/>
<use data-text="&#x2019;" xlink:href="#font_5_2" transform="matrix(60,0,0,-60,399.7788,451.8568)" fill="#231f20"/>
<use data-text="&#x05e5;" xlink:href="#font_5_35" transform="matrix(60,0,0,-60,418.5288,451.8568)" fill="#231f20"/>
<use data-text="&#x05d9;" xlink:href="#font_5_34" transform="matrix(60,0,0,-60,455.9088,451.8568)" fill="#231f20"/>
<use data-text="&#x05d1;" xlink:href="#font_5_33" transform="matrix(60,0,0,-60,474.70683,451.8568)" fill="#231f20"/>
<use data-text="&#x05d5;" xlink:href="#font_5_32" transform="matrix(60,0,0,-60,509.92683,451.8568)" fill="#231f20"/>
<use data-text="&#x05de;" xlink:href="#font_5_31" transform="matrix(60,0,0,-60,529.06686,451.8568)" fill="#231f20"/>
<use data-text="&#x05d5;" xlink:href="#font_5_32" transform="matrix(60,0,0,-60,571.4268,451.8568)" fill="#231f20"/>
<use data-text="&#x05dc;" xlink:href="#font_5_30" transform="matrix(60,0,0,-60,590.80087,451.8568)" fill="#231f20"/>
<use data-text="&#x05d5;" xlink:href="#font_5_32" transform="matrix(60,0,0,-60,624.73086,451.8568)" fill="#231f20"/>
<use data-text="&#x05e1;" xlink:href="#font_5_29" transform="matrix(60,0,0,-60,643.87088,451.8568)" fill="#231f20"/>
<use data-text=" " xlink:href="#font_5_1" transform="matrix(60,0,0,-60,682.93087,451.8568)" fill="#231f20"/>
<use data-text="&#x05d0;" xlink:href="#font_5_28" transform="matrix(60,0,0,-60,698.17086,451.8568)" fill="#231f20"/>
<use data-text="&#x05d9;" xlink:href="#font_5_34" transform="matrix(60,0,0,-60,738.88687,451.8568)" fill="#231f20"/>
<use data-text="&#x05d2;" xlink:href="#font_5_27" transform="matrix(60,0,0,-60,755.46487,451.8568)" fill="#231f20"/>
<use data-text="&#x05e9;" xlink:href="#font_5_26" transform="matrix(60,0,0,-60,780.22689,451.8568)" fill="#231f20"/>
<use data-text=" " xlink:href="#font_5_1" transform="matrix(60,0,0,-60,828.52688,451.8568)" fill="#231f20"/>
<use data-text="&#x05e1;" xlink:href="#font_5_29" transform="matrix(60,0,0,-60,843.76687,451.8568)" fill="#231f20"/>
<use data-text="&#x05d9;" xlink:href="#font_5_34" transform="matrix(60,0,0,-60,882.82687,451.8568)" fill="#231f20"/>
<use data-text="&#x05e8;" xlink:href="#font_5_25" transform="matrix(60,0,0,-60,901.6308,451.8568)" fill="#231f20"/>
<use data-text="&#x05d9;" xlink:href="#font_5_34" transform="matrix(60,0,0,-60,935.6208,451.8568)" fill="#231f20"/>
<use data-text="&#x05d0;" xlink:href="#font_5_28" transform="matrix(60,0,0,-60,953.4888,451.8568)" fill="#231f20"/>
<use data-text="A" xlink:href="#font_4_1" transform="matrix(24.3744,0,0,-24,699.8486,561.6537)" fill="#231f20"/>
<use data-text="r" xlink:href="#font_4_17" transform="matrix(24.3744,0,0,-24,716.0941,561.6537)" fill="#231f20"/>
<use data-text="c" xlink:href="#font_4_13" transform="matrix(24.3744,0,0,-24,726.2778,561.6537)" fill="#231f20"/>
<use data-text="h" xlink:href="#font_4_15" transform="matrix(24.3744,0,0,-24,741.41427,561.6537)" fill="#231f20"/>
<use data-text="i" xlink:href="#font_4_16" transform="matrix(24.3744,0,0,-24,757.2576,561.6537)" fill="#231f20"/>
<use data-text="t" xlink:href="#font_4_18" transform="matrix(24.3744,0,0,-24,764.38717,561.6537)" fill="#231f20"/>
<use data-text="e" xlink:href="#font_4_14" transform="matrix(24.3744,0,0,-24,773.81277,561.6537)" fill="#231f20"/>
<use data-text="c" xlink:href="#font_4_13" transform="matrix(24.3744,0,0,-24,789.6171,561.6537)" fill="#231f20"/>
<use data-text="t" xlink:href="#font_4_18" transform="matrix(24.3744,0,0,-24,804.60006,561.6537)" fill="#231f20"/>
<use data-text="u" xlink:href="#font_4_19" transform="matrix(24.3744,0,0,-24,814.88607,561.6537)" fill="#231f20"/>
<use data-text="r" xlink:href="#font_4_17" transform="matrix(24.3744,0,0,-24,830.29067,561.6537)" fill="#231f20"/>
<use data-text="e" xlink:href="#font_4_14" transform="matrix(24.3744,0,0,-24,840.4743,561.6537)" fill="#231f20"/>
<use data-text=" " xlink:href="#font_4_2" transform="matrix(24.3744,0,0,-24,858.6234,561.6537)" fill="#231f20"/>
<use data-text="|" xlink:href="#font_4_20" transform="matrix(24.3744,0,0,-24,867.37387,561.6537)" fill="#231f20"/>
<use data-text=" " xlink:href="#font_4_2" transform="matrix(24.3744,0,0,-24,875.1249,561.6537)" fill="#231f20"/>
<use data-text="&#x05ea;" xlink:href="#font_4_44" transform="matrix(24.3744,0,0,-24,883.8753,561.6537)" fill="#231f20"/>
<use data-text="&#x05d5;" xlink:href="#font_4_43" transform="matrix(24.3744,0,0,-24,902.1561,561.6537)" fill="#231f20"/>
<use data-text="&#x05dc;" xlink:href="#font_4_42" transform="matrix(24.3744,0,0,-24,909.63906,561.6537)" fill="#231f20"/>
<use data-text="&#x05db;" xlink:href="#font_4_41" transform="matrix(24.3744,0,0,-24,924.2393,561.6537)" fill="#231f20"/>
<use data-text="&#x05d9;" xlink:href="#font_4_40" transform="matrix(24.3744,0,0,-24,939.54647,561.6537)" fill="#231f20"/>
<use data-text="&#x05e8;" xlink:href="#font_4_39" transform="matrix(24.3744,0,0,-24,946.6882,561.6537)" fill="#231f20"/>
<use data-text="&#x05d3;" xlink:href="#font_4_38" transform="matrix(24.3744,0,0,-24,961.1641,561.6537)" fill="#231f20"/>
<use data-text="&#x05d0;" xlink:href="#font_4_37" transform="matrix(24.3744,0,0,-24,976.92709,561.6537)" fill="#231f20"/>
</svg>
