<?xml version="1.0" encoding="UTF-8"?>
<svg id="Layer_2" data-name="Layer 2" xmlns="http://www.w3.org/2000/svg" xmlns:xlink="http://www.w3.org/1999/xlink" viewBox="0 0 794.44 736.06">
  <defs>
    <style>
      .cls-1 {
        fill: #fff;
      }

      .cls-2 {
        stroke: #fff;
        stroke-miterlimit: 10;
        stroke-width: 15px;
      }

      .cls-2, .cls-3 {
        fill: none;
      }

      .cls-4 {
        clip-path: url(#clippath-1);
      }

      .cls-5 {
        clip-path: url(#clippath-3);
      }

      .cls-6 {
        fill: #6d6e71;
      }

      .cls-7 {
        clip-path: url(#clippath-2);
      }

      .cls-8 {
        clip-path: url(#clippath);
      }
    </style>
    <clipPath id="clippath">
      <rect class="cls-3" x="66.83" width="338.22" height="371.26" transform="translate(471.88 371.26) rotate(180)"/>
    </clipPath>
    <clipPath id="clippath-1">
      <rect class="cls-3" x="396.14" y="363.31" width="325" height="371.48"/>
    </clipPath>
    <clipPath id="clippath-2">
      <rect class="cls-3" x="0" y=".27" width="792.28" height="735.09" rx="367.54" ry="367.54"/>
    </clipPath>
    <clipPath id="clippath-3">
      <rect class="cls-3" x="61.6" y="-1.03" width="338.22" height="370.58"/>
    </clipPath>
  </defs>
  <g id="Layer_1-2" data-name="Layer 1">
    <rect class="cls-6" x="2.16" y=".97" width="792.28" height="735.09" rx="367.54" ry="367.54"/>
    <polygon class="cls-1" points="411.84 733.59 393.81 734.06 57.74 366.23 75.77 365.75 411.84 733.59"/>
    <rect class="cls-1" x="397.28" y="2.17" width="18.25" height="731.29"/>
    <g class="cls-8">
      <ellipse class="cls-2" cx="405.05" cy="184.61" rx="312.2" ry="182.26"/>
    </g>
    <g class="cls-4">
      <ellipse class="cls-2" cx="396.14" cy="550.07" rx="300.01" ry="182.37"/>
    </g>
    <g class="cls-7">
      <rect class="cls-1" x="26.29" y="2.17" width="18.25" height="731.29"/>
      <rect class="cls-1" x="57.71" y="2.17" width="18.25" height="731.29"/>
      <g class="cls-5">
        <ellipse class="cls-2" cx="61.6" cy="185.28" rx="312.2" ry="181.93"/>
      </g>
    </g>
  </g>
</svg>